<svg width="31" height="30" viewBox="0 0 31 30" fill="none" xmlns="http://www.w3.org/2000/svg">
<g id="Frame 1437252798">
<path id="Vector" d="M20.9166 24.9801C21.626 25.1051 22.3561 24.9432 22.9461 24.53C23.5362 24.1169 23.9381 23.4862 24.0633 22.7768L26.4633 9.15681C26.5376 8.74804 26.5304 8.3286 26.4419 7.92264C26.3535 7.51668 26.1856 7.13222 25.948 6.79141C25.7104 6.4506 25.4076 6.16017 25.0573 5.93684C24.7069 5.71351 24.3159 5.5617 23.9066 5.49015L13.7699 3.71681C13.3612 3.64291 12.9419 3.65049 12.5361 3.73911C12.1303 3.82773 11.746 3.99565 11.4053 4.23322C11.0646 4.47078 10.7742 4.77332 10.5507 5.12345C10.3273 5.47358 10.1752 5.86441 10.1033 6.27348L9.99658 6.87681" stroke="#9AFC1E" stroke-width="2.66667" stroke-miterlimit="10" stroke-linecap="round"/>
<path id="Vector_2" d="M16.5435 7.6167H8.18347C5.90806 7.6167 4.06348 9.46129 4.06348 11.7367V23.1967C4.06348 25.4721 5.90806 27.3167 8.18347 27.3167H16.5435C18.8189 27.3167 20.6635 25.4721 20.6635 23.1967V11.7367C20.6635 9.46129 18.8189 7.6167 16.5435 7.6167Z" stroke="#9AFC1E" stroke-width="2.66667" stroke-miterlimit="10" stroke-linecap="round"/>
<path id="Vector_3" d="M11.5167 19.7998L9.81003 18.0898C9.4838 17.7748 9.28561 17.3503 9.25361 16.898C9.2216 16.4457 9.35806 15.9975 9.6367 15.6398C9.79521 15.4476 9.99207 15.2907 10.2147 15.1789C10.4373 15.0672 10.6809 15.0032 10.9297 14.9909C11.1785 14.9787 11.4271 15.0185 11.6596 15.1079C11.8921 15.1972 12.1034 15.3341 12.28 15.5098L12.3567 15.5865L12.3767 15.5665C12.6916 15.2402 13.1161 15.042 13.5685 15.01C14.0208 14.978 14.469 15.1145 14.8267 15.3931C15.0195 15.5511 15.1772 15.7477 15.2895 15.9702C15.4018 16.1927 15.4663 16.4363 15.4789 16.6853C15.4915 16.9342 15.4518 17.183 15.3624 17.4158C15.2731 17.6485 15.136 17.8599 14.96 18.0365L13.1967 19.7998C12.9737 20.0221 12.6716 20.1469 12.3567 20.1469C12.0418 20.1469 11.7397 20.0221 11.5167 19.7998Z" fill="#9AFC1E"/>
</g>
</svg>
