<svg width="16" height="16" viewBox="0 0 16 16" fill="none" xmlns="http://www.w3.org/2000/svg">
<path fill-rule="evenodd" clip-rule="evenodd" d="M7.563 1.73438C7.19654 1.6245 6.81531 1.7531 6.58589 2.03045L10.3557 2.57173L7.563 1.73438ZM7.79277 0.968081C6.95602 0.717191 6.07802 1.13246 5.728 1.90727L5.01515 1.80492C4.10526 1.67427 3.25947 2.2799 3.08081 3.17019H3.91175C4.06542 2.78189 4.46999 2.53484 4.90145 2.59679L5.48034 2.67991L5.33334 3.17019H6.16853L6.28106 2.79488L11.0113 3.47407C11.5161 3.54655 11.8665 4.0145 11.7941 4.51928L10.5027 13.5128C10.4777 13.6868 10.4058 13.8424 10.3015 13.9688L9.79794 13.8178C9.68563 14.4348 9.14546 14.9026 8.49603 14.9026H8.05692L9.34383 15.0874C9.78009 15.15 10.2016 15.0434 10.5419 14.8173C11.3059 14.8439 12.0217 14.3561 12.2515 13.5895L14.861 4.88657C15.1344 3.97489 14.6169 3.01423 13.7052 2.74088L7.79277 0.968081ZM11.4852 13.3597C11.4433 13.4996 11.3712 13.6222 11.2781 13.7224C11.2845 13.6908 11.29 13.6588 11.2946 13.6265L12.5859 4.63298C12.6746 4.01545 12.4241 3.42744 11.9757 3.05748L13.4755 3.50717C13.9639 3.65363 14.2412 4.16834 14.0947 4.65681L11.4852 13.3597Z" fill="#585858"/>
<path d="M8.49587 3.04688H2.32335C1.59248 3.04688 1 3.63936 1 4.37022V13.456C1 14.1868 1.59248 14.7793 2.32335 14.7793H8.49587C9.22674 14.7793 9.81922 14.1868 9.81922 13.456V4.37022C9.81922 3.63936 9.22674 3.04688 8.49587 3.04688Z" stroke="#585858" stroke-width="0.8" stroke-miterlimit="10"/>
<path d="M4.95899 6.90829C5.19518 6.60462 5.65415 6.60462 5.89034 6.90829L7.20777 8.60213C7.37346 8.81516 7.37346 9.11347 7.20777 9.32651L5.89034 11.0203C5.65415 11.324 5.19518 11.324 4.95899 11.0203L3.64157 9.32651C3.47587 9.11347 3.47587 8.81516 3.64157 8.60213L4.95899 6.90829Z" stroke="#585858" stroke-width="0.8" stroke-miterlimit="10"/>
<path d="M8.94924 5.56593C8.92014 5.41965 8.88307 5.27507 8.83819 5.13283H8.32921C8.28409 5.27452 8.2464 5.41846 8.21631 5.56408H8.07935C8.1163 5.36202 8.16764 5.16286 8.23297 4.96811C8.33414 4.62262 8.43039 4.30366 8.52169 4.01123H8.6531C8.7475 4.32217 8.83819 4.64792 8.93998 4.98662C9.00231 5.17604 9.05117 5.36962 9.0862 5.56593H8.94924ZM8.79932 4.99587C8.73639 4.77007 8.66606 4.52761 8.58647 4.2685C8.50874 4.51836 8.43656 4.76082 8.36808 4.99587H8.79932Z" fill="#585858"/>
</svg>
